<?xml version="1.0" encoding="UTF-8"?>
<svg width="550px" height="486px" viewBox="0 0 550 486" version="1.1" xmlns="http://www.w3.org/2000/svg" xmlns:xlink="http://www.w3.org/1999/xlink">
    <!-- Generator: Sketch 62 (91390) - https://sketch.com -->
    <title>Mehdi Family</title>
    <desc>Created with Sketch.</desc>
    <g id="Mehdi-Family" stroke="none" stroke-width="1" fill="none" fill-rule="evenodd">
        <g id="Group-3" transform="translate(82.000000, 50.000000)">
            <g id="Group-2" stroke-width="2">
                <rect id="Rectangle" stroke="#00AF89" x="53" y="53" width="281" height="281"></rect>
                <path d="M333.8,333.8 L53.2,333.8 L53.2,53.2 L333.8,53.2 L333.8,333.8 Z" id="Rectangle" stroke="#00ADD1" transform="translate(193.500000, 193.500000) rotate(30.000000) translate(-193.500000, -193.500000) "></path>
                <path d="M333.8,333.8 L53.2,333.8 L53.2,53.2 L333.8,53.2 L333.8,333.8 Z" id="Rectangle" stroke="#4CAF00" transform="translate(193.500000, 193.500000) rotate(60.000000) translate(-193.500000, -193.500000) "></path>
            </g>
            <path d="M144.25,222 L144.28125,221.96875 C139.760417,212.71875 137.395833,207.90625 137.1875,207.53125 C137.125,207.364583 134.083333,201.125 128.0625,188.8125 L128.0625,188.8125 L121.78125,175.9375 L121.75,175.9375 C121.625,176.166667 121.020833,177.385417 119.9375,179.59375 L119.9375,179.59375 L114.65625,190.4375 L114.625,190.4375 C114.583333,190.333333 113.25,187.604167 110.625,182.25 C108.708333,178.3125 107.677083,176.208333 107.53125,175.9375 L107.53125,175.9375 L107.5,175.9375 C107.375,176.208333 105.583333,179.885417 102.125,186.96875 C96.75,197.947917 94.0625,203.447917 94.0625,203.46875 C93.8125,203.96875 90.7916667,210.135417 85,221.96875 L85,221.96875 L85.03125,222 L144.25,222 Z M100.84375,218.6875 L90.3125,218.6875 L91.28125,216.71875 C91.53125,216.197917 94.4791667,210.177083 100.125,198.65625 C104.833333,188.989583 107.302083,183.9375 107.53125,183.5 L107.53125,183.5 L112.78125,194.25 C112.552083,194.75 111.052083,197.822917 108.28125,203.46875 L108.28125,203.46875 L100.84375,218.6875 Z M138.96875,218.6875 L128.4375,218.6875 L125.15625,211.9375 C124.927083,211.5 122.041667,205.604167 116.5,194.25 C116.520833,194.1875 118.270833,190.604167 121.75,183.5 C121.958333,183.916667 124.041667,188.166667 128,196.25 C129.104167,198.520833 129.65625,199.666667 129.65625,199.6875 C129.90625,200.166667 133.010417,206.5 138.96875,218.6875 L138.96875,218.6875 Z M124.71875,218.6875 L104.5625,218.6875 C104.6875,218.395833 105.479167,216.770833 106.9375,213.8125 C112.020833,203.416667 114.583333,198.15625 114.625,198.03125 L114.625,198.03125 L114.65625,198.03125 C114.65625,198.072917 114.916667,198.625 115.4375,199.6875 L115.4375,199.6875 L124.71875,218.65625 L124.71875,218.6875 Z M182.1875,222 C182.208333,222 182.21875,221.989583 182.21875,221.96875 L182.21875,221.96875 L182.21875,218.625 C182.21875,218.604167 182.208333,218.59375 182.1875,218.59375 L182.1875,218.59375 L163.5,218.59375 C160,218.59375 156.916667,217.40625 154.25,215.03125 C153.6875,214.510417 153.25,214.0625 152.9375,213.6875 C150.875,211.083333 149.84375,208.208333 149.84375,205.0625 L149.84375,205.0625 L149.84375,205.03125 C149.84375,202.71875 150.552083,200.583333 151.96875,198.625 C152.197917,198.270833 152.666667,197.75 153.375,197.0625 C155.520833,195.166667 157.947917,194.21875 160.65625,194.21875 L160.65625,194.21875 L182.1875,194.21875 C182.208333,194.21875 182.21875,194.208333 182.21875,194.1875 L182.21875,194.1875 L182.21875,190.8125 L182.21875,190.8125 L182.1875,190.78125 L162.875,190.78125 C162.8,190.70625 162.7475,190.65375 162.7175,190.62375 L162.6875,190.59375 C161.791667,189.71875 158.322917,186.291667 152.28125,180.3125 L152.28125,180.3125 L182.1875,180.3125 C182.208333,180.3125 182.21875,180.302083 182.21875,180.28125 L182.21875,180.28125 L182.21875,176.9375 C182.21875,176.916667 182.208333,176.90625 182.1875,176.90625 L182.1875,176.90625 L144,176.90625 L150.4375,183.3125 C155.104167,187.916667 157.708333,190.489583 158.25,191.03125 C158.166667,191.03125 158.020833,191.052083 157.8125,191.09375 C156.958333,191.28125 156.25,191.479167 155.6875,191.6875 C154.916667,192 154.135417,192.385417 153.34375,192.84375 C152.59375,193.28125 151.802083,193.875 150.96875,194.625 C150.239583,195.354167 149.739583,195.895833 149.46875,196.25 C147.427083,198.895833 146.40625,201.822917 146.40625,205.03125 C146.40625,207.302083 146.864583,209.520833 147.78125,211.6875 C148.28125,212.854167 148.864583,213.885417 149.53125,214.78125 C149.84375,215.302083 150.489583,216.072917 151.46875,217.09375 C152.40625,217.989583 153.15625,218.614583 153.71875,218.96875 C156.697917,220.989583 159.895833,222 163.3125,222 L163.3125,222 L182.1875,222 Z M166.90625,208.59375 C167.385417,208.59375 167.833333,208.416667 168.25,208.0625 C168.770833,207.583333 169.03125,207.0625 169.03125,206.5 L169.03125,206.5 L169.03125,206.3125 C169.03125,205.9375 168.90625,205.552083 168.65625,205.15625 C168.15625,204.510417 167.552083,204.1875 166.84375,204.1875 C166.385417,204.1875 165.947917,204.322917 165.53125,204.59375 C164.927083,205.09375 164.625,205.677083 164.625,206.34375 L164.625,206.34375 L164.625,206.46875 C164.625,206.947917 164.791667,207.395833 165.125,207.8125 C165.625,208.333333 166.15625,208.59375 166.71875,208.59375 L166.71875,208.59375 L166.90625,208.59375 Z M207.90625,200.4375 C207.96875,200.416667 208.270833,200.28125 208.8125,200.03125 L208.8125,200.03125 L221.59375,194.25 C224.927083,192.75 226.635417,191.96875 226.71875,191.90625 L226.71875,191.90625 L226.71875,176.71875 C226.71875,176.697917 226.708333,176.6875 226.6875,176.6875 L226.6875,176.6875 L223.3125,176.6875 C223.291667,176.6875 223.28125,176.697917 223.28125,176.71875 L223.28125,176.71875 L223.28125,189.71875 L222.28125,190.1875 C222.03125,190.291667 217.239583,192.458333 207.90625,196.6875 L207.90625,196.6875 L204.6875,195.21875 C196.583333,191.552083 192.53125,189.71875 192.53125,189.71875 L192.53125,189.71875 L192.53125,176.71875 C192.53125,176.697917 192.520833,176.6875 192.5,176.6875 L192.5,176.6875 L189.125,176.6875 C189.104167,176.6875 189.09375,176.697917 189.09375,176.71875 L189.09375,176.71875 L189.09375,191.9375 L193.96875,194.125 C194.114583,194.1875 198.760417,196.291667 207.90625,200.4375 Z M192.5,222 C192.520833,222 192.53125,221.989583 192.53125,221.96875 L192.53125,221.96875 L192.53125,201.40625 C193.802083,201.927083 194.447917,202.1875 194.46875,202.1875 C194.864583,202.375 199.34375,204.208333 207.90625,207.6875 C208.760417,207.333333 209.270833,207.125 209.4375,207.0625 C209.458333,207.041667 214.072917,205.15625 223.28125,201.40625 L223.28125,201.40625 L223.28125,221.96875 C223.28125,221.989583 223.291667,222 223.3125,222 L223.3125,222 L226.6875,222 C226.708333,222 226.71875,221.989583 226.71875,221.96875 L226.71875,221.96875 L226.71875,196.3125 C224.052083,197.395833 222.708333,197.947917 222.6875,197.96875 C222.291667,198.114583 217.364583,200.125 207.90625,204 C204.739583,202.708333 203.104167,202.041667 203,202 C202.916667,201.958333 198.291667,200.0625 189.125,196.3125 C189.104167,196.3125 189.09375,196.322917 189.09375,196.34375 L189.09375,196.34375 L189.09375,221.96875 C189.09375,221.989583 189.104167,222 189.125,222 L189.125,222 L192.5,222 Z M235.4375,205.28125 C235.4375,205.28125 235.520833,205.125 235.6875,204.8125 L235.6875,204.8125 L243.28125,191.3125 C247.09375,184.5625 249.03125,181.125 249.09375,181 C250.572917,178.395833 251.333333,177.03125 251.375,176.90625 L251.375,176.90625 L235.4375,176.90625 C235.416667,176.90625 235.40625,176.916667 235.40625,176.9375 L235.40625,176.9375 L235.40625,205.28125 L235.4375,205.28125 Z M250.71875,222 C254.614583,222 258.354167,220.96875 261.9375,218.90625 C262.708333,218.427083 263.291667,218.03125 263.6875,217.71875 C264.25,217.364583 265.125,216.625 266.3125,215.5 C267.166667,214.625 267.802083,213.90625 268.21875,213.34375 C269.114583,212.15625 269.822917,211.052083 270.34375,210.03125 C272.010417,206.78125 272.84375,203.416667 272.84375,199.9375 L272.84375,199.9375 L272.84375,199.65625 C272.84375,195.65625 271.791667,191.833333 269.6875,188.1875 C269.229167,187.416667 268.583333,186.479167 267.75,185.375 C267.354167,184.895833 266.6875,184.1875 265.75,183.25 C264.770833,182.354167 263.979167,181.697917 263.375,181.28125 C262.229167,180.46875 261.166667,179.822917 260.1875,179.34375 C258.916667,178.65625 257.208333,178.020833 255.0625,177.4375 L255.0625,177.4375 L255.03125,177.4375 C254.989583,177.5 253.90625,179.447917 251.78125,183.28125 C251.177083,184.364583 248.614583,188.989583 244.09375,197.15625 C240.384659,203.840341 238.377324,207.452314 238.071746,207.992169 L238.03125,208.0625 C236.28125,211.1875 235.40625,212.78125 235.40625,212.84375 L235.40625,212.84375 L235.40625,221.96875 C235.40625,221.989583 235.416667,222 235.4375,222 L235.4375,222 L250.71875,222 Z M238.8125,192.28125 L238.8125,180.3125 L245.5625,180.3125 C244.791667,181.6875 244.375,182.427083 244.3125,182.53125 C240.708333,188.947917 238.875,192.197917 238.8125,192.28125 L238.8125,192.28125 Z M250.53125,218.59375 L238.8125,218.59375 L238.8125,213.6875 L242.125,207.71875 C242.333333,207.364583 244.854167,202.822917 249.6875,194.09375 C254.0625,186.197917 256.385417,182 256.65625,181.5 C257.614583,181.875 258.4375,182.25 259.125,182.625 C259.916667,183.020833 260.875,183.65625 262,184.53125 C262.375,184.78125 263.03125,185.375 263.96875,186.3125 C264.96875,187.395833 265.666667,188.270833 266.0625,188.9375 C266.708333,189.854167 267.260417,190.822917 267.71875,191.84375 C268.84375,194.447917 269.40625,197.020833 269.40625,199.5625 L269.40625,199.5625 L269.40625,200.0625 C269.40625,202.291667 268.958333,204.5625 268.0625,206.875 C267.625,207.958333 267.03125,209.0625 266.28125,210.1875 C265.822917,210.916667 265.125,211.791667 264.1875,212.8125 C263.333333,213.666667 262.666667,214.270833 262.1875,214.625 C258.708333,217.270833 254.822917,218.59375 250.53125,218.59375 L250.53125,218.59375 Z M293.84375,222 C293.864583,222 293.875,221.989583 293.875,221.96875 L293.875,221.96875 L293.875,218.625 C293.875,218.604167 293.864583,218.59375 293.84375,218.59375 L293.84375,218.59375 L288.78125,218.59375 L288.78125,200.84375 L293.875,200.84375 L293.875,197.46875 C293.875,197.447917 293.864583,197.4375 293.84375,197.4375 L293.84375,197.4375 L288.78125,197.4375 L288.78125,180.34375 L293.84375,180.34375 C293.864583,180.34375 293.875,180.333333 293.875,180.3125 L293.875,180.3125 L293.875,176.96875 C293.875,176.947917 293.864583,176.9375 293.84375,176.9375 L293.84375,176.9375 L280.3125,176.9375 C280.291667,176.9375 280.28125,176.947917 280.28125,176.96875 L280.28125,176.96875 L280.28125,180.3125 C280.28125,180.333333 280.291667,180.34375 280.3125,180.34375 L280.3125,180.34375 L285.375,180.34375 L285.375,197.4375 L280.3125,197.4375 C280.291667,197.4375 280.28125,197.447917 280.28125,197.46875 L280.28125,197.46875 L280.28125,200.84375 L280.28125,200.84375 L285.375,200.84375 L285.375,218.59375 L280.3125,218.59375 C280.291667,218.59375 280.28125,218.604167 280.28125,218.625 L280.28125,218.625 L280.28125,221.96875 C280.28125,221.989583 280.291667,222 280.3125,222 L280.3125,222 L293.84375,222 Z" id="Mehdi" fill="#00ADD1" fill-rule="nonzero"></path>
            <path d="M143.84,285 C144.032,285 144.186667,284.936 144.304,284.808 C144.421333,284.68 144.48,284.530667 144.48,284.36 L144.48,284.36 L144.48,273.992 L154.464,273.992 C154.600533,273.992 154.723413,273.954453 154.83264,273.87936 L154.912,273.816 C155.04,273.698667 155.104,273.544 155.104,273.352 C155.104,273.181333 155.04,273.032 154.912,272.904 C154.784,272.776 154.634667,272.712 154.464,272.712 L154.464,272.712 L144.48,272.712 L144.48,263.88 L155.904,263.88 C156.040533,263.88 156.163413,263.842453 156.27264,263.76736 L156.352,263.704 C156.48,263.586667 156.544,263.432 156.544,263.24 C156.544,263.069333 156.48,262.92 156.352,262.792 C156.224,262.664 156.074667,262.6 155.904,262.6 L155.904,262.6 L143.84,262.6 C143.669333,262.6 143.52,262.664 143.392,262.792 C143.264,262.92 143.2,263.069333 143.2,263.24 L143.2,263.24 L143.2,284.36 C143.2,284.530667 143.258667,284.68 143.376,284.808 C143.493333,284.936 143.648,285 143.84,285 Z M176.096,285 C176.288,285 176.448,284.946667 176.576,284.84 C176.704,284.733333 176.768,284.584 176.768,284.392 C176.768,284.285333 176.757333,284.2 176.736,284.136 L176.736,284.136 L168.128,262.952 C168.085333,262.824 168.010667,262.722667 167.904,262.648 C167.797333,262.573333 167.658667,262.536 167.488,262.536 C167.338667,262.536 167.216,262.562667 167.12,262.616 C167.024,262.669333 166.944,262.781333 166.88,262.952 L166.88,262.952 L158.272,284.136 C158.229333,284.264 158.218667,284.370667 158.24,284.456 C158.261333,284.605333 158.325333,284.733333 158.432,284.84 C158.538667,284.946667 158.698667,285 158.912,285 C159.04,285 159.157333,284.962667 159.264,284.888 C159.370667,284.813333 159.445333,284.712 159.488,284.584 L159.488,284.584 L162.084,278.057 L172.8,278.056 L172.783,277.988 L175.456,284.584 C175.488,284.68 175.541,284.761 175.615,284.827 L175.696,284.888 C175.813333,284.962667 175.946667,285 176.096,285 Z M172.292,276.776 L162.594,276.776 L167.398,264.701 L172.292,276.776 Z M200.544,285 C200.714667,285 200.869333,284.936 201.008,284.808 C201.146667,284.68 201.216,284.530667 201.216,284.36 L201.216,284.36 L201.216,263.24 C201.216,263.069333 201.162667,262.925333 201.056,262.808 C200.949333,262.690667 200.810667,262.621333 200.64,262.6 C200.405333,262.557333 200.202667,262.653333 200.032,262.888 L200.032,262.888 L191.168,276.076 L182.304,262.888 C182.24,262.808 182.17,262.746 182.094,262.702 L182.016,262.664 C181.909333,262.621333 181.802667,262.6 181.696,262.6 C181.504,262.6 181.354667,262.669333 181.248,262.808 C181.141333,262.946667 181.088,263.090667 181.088,263.24 L181.088,263.24 L181.088,284.36 C181.088,284.530667 181.146667,284.68 181.264,284.808 C181.381333,284.936 181.536,285 181.728,285 C181.898667,285 182.048,284.936 182.176,284.808 C182.304,284.68 182.368,284.530667 182.368,284.36 L182.368,284.36 L182.368,265.197 L190.656,277.704 C190.688,277.768 190.735,277.82 190.797,277.86 L190.864,277.896 C190.96,277.938667 191.061333,277.96 191.168,277.96 C191.274667,277.96 191.365333,277.938667 191.44,277.896 C191.514667,277.853333 191.573333,277.789333 191.616,277.704 L191.616,277.704 L199.872,265.213 L199.872,284.36 C199.872,284.496533 199.91296,284.619413 199.99488,284.72864 L200.064,284.808 C200.192,284.936 200.352,285 200.544,285 Z M208.288,285 C208.458667,285 208.608,284.936 208.736,284.808 C208.864,284.68 208.938667,284.52 208.96,284.328 L208.96,284.328 L208.96,263.272 C208.96,263.08 208.896,262.92 208.768,262.792 C208.64,262.664 208.48,262.6 208.288,262.6 C208.096,262.6 207.936,262.664 207.808,262.792 C207.68,262.92 207.616,263.08 207.616,263.272 L207.616,263.272 L207.616,284.328 C207.616,284.52 207.674667,284.68 207.792,284.808 C207.909333,284.936 208.074667,285 208.288,285 Z M227.744,285 C227.914667,285 228.064,284.941333 228.192,284.824 C228.32,284.706667 228.384,284.552 228.384,284.36 C228.384,284.189333 228.32,284.04 228.192,283.912 C228.064,283.784 227.914667,283.72 227.744,283.72 L227.744,283.72 L216.704,283.72 L216.704,263.24 C216.704,263.103467 216.66304,262.980587 216.58112,262.87136 L216.512,262.792 C216.384,262.664 216.224,262.6 216.032,262.6 C215.84,262.6 215.68,262.664 215.552,262.792 C215.424,262.92 215.36,263.069333 215.36,263.24 L215.36,263.24 L215.36,284.36 C215.36,284.530667 215.418667,284.68 215.536,284.808 C215.653333,284.936 215.808,285 216,285 L216,285 L227.744,285 Z M235.712,285 C235.904,285 236.064,284.936 236.192,284.808 C236.32,284.68 236.384,284.530667 236.384,284.36 L236.384,284.36 L236.384,273.409 L243.68,263.496 C243.701333,263.464 243.72,263.432 243.736,263.4 L243.776,263.304 C243.797333,263.24 243.808,263.165333 243.808,263.08 C243.808,262.973333 243.754667,262.845333 243.648,262.696 C243.541333,262.546667 243.381333,262.472 243.168,262.472 C242.933333,262.472 242.752,262.568 242.624,262.76 L242.624,262.76 L235.72,272.205 L228.8,262.76 C228.693333,262.6 228.54963,262.506667 228.368889,262.48 L228.256,262.472 C228.106667,262.472 227.957333,262.530667 227.808,262.648 C227.658667,262.765333 227.584,262.909333 227.584,263.08 C227.584,263.165333 227.594667,263.24 227.616,263.304 C227.637333,263.368 227.669333,263.432 227.712,263.496 L227.712,263.496 L235.04,273.549 L235.04,284.36 C235.04,284.496533 235.077547,284.619413 235.15264,284.72864 L235.216,284.808 C235.333333,284.936 235.498667,285 235.712,285 Z" id="FAMILY" fill="#4CAF00" fill-rule="nonzero"></path>
            <g id="Group" transform="translate(150.000000, 97.000000)" fill="#00AF89" fill-rule="nonzero">
                <path d="M85,40.9173847 L85,29.2366954 C84.6590426,29.7807062 84.4420697,30.1071127 84.3490814,30.2159149 C84.1476065,30.4646055 83.1944757,30.7132962 81.4896888,30.9619868 C79.6454193,31.2417638 78.2738408,31.723602 77.3749531,32.4075013 C75.9646294,33.4644366 75.2594676,35.1664132 75.2594676,37.5134313 L75.2594676,37.5134313 L71.0982377,37.5134313 L71.0982377,40.9173847 L85,40.9173847 Z M81.5826772,37.5134313 L78.7232846,37.5134313 C78.7232846,35.4306471 79.6764154,34.3892549 81.5826772,34.3892549 L81.5826772,34.3892549 L81.5826772,37.5134313 Z M59.5909261,46 C60.9082615,46 62.2100987,45.4870755 63.4964379,44.4612266 C64.8447694,43.3887481 65.5189351,42.2074675 65.5189351,40.9173847 L65.5189351,40.9173847 L73.2834646,40.9173847 L73.2834646,37.5134313 L70.67979,37.5134313 L64.4495688,26.5554992 L66.6347957,22.7318804 C67.3632046,21.2397364 67.7274091,19.8408515 67.7274091,18.5352255 C67.7274091,16.1726643 67.0222472,14.221997 65.6119235,12.6832235 C64.9145107,11.9060652 63.6049244,10.9423889 61.6831646,9.79219463 C60.2728409,8.95286366 59.567679,8.1990201 59.567679,7.53066396 C59.567679,7.40631863 59.8621422,6.67190404 60.4510686,5.32742017 C61.039995,3.98293631 61.3344582,2.79776989 61.3344582,1.77192093 C61.3344582,1.29008278 61.152356,0.874303092 60.7881515,0.524581855 C60.423947,0.174860618 59.9551306,0 59.3817023,0 C58.2348456,0 57.6614173,0.567325562 57.6614173,1.70197669 C57.6614173,2.1527285 57.8357705,2.54907924 58.1844769,2.89102889 C58.5331834,3.23297854 58.9322585,3.40395337 59.3817023,3.40395337 C59.815648,3.40395337 60.2263467,3.23297854 60.6137983,2.89102889 C60.4278215,3.45058287 59.80015,4.34431492 58.7307837,5.57222504 C57.8473941,6.58253083 57.4056993,7.62392296 57.4056993,8.69640142 C57.4056993,9.27149856 57.5141857,9.77665146 57.7311586,10.2118601 C55.0809899,11.1444501 52.7097863,13.9888495 50.6175478,18.7450583 C52.151856,16.8798784 53.4846894,15.5742524 54.616048,14.8281804 C56.1503562,13.8023315 57.9248844,13.289407 59.9396325,13.289407 C61.2569679,13.289407 62.3340832,13.9499916 63.1709786,15.2711607 C63.8993876,16.4368981 64.2635921,17.7192093 64.2635921,19.1180943 C64.2635921,20.0195979 63.6979128,21.4184829 62.5665542,23.3147491 L62.5665542,23.3147491 L59.9396325,18.7450583 C57.831896,20.0662274 56.6385452,20.8511573 56.3595801,21.0998479 C55.1817273,22.1412401 54.5928009,23.3846934 54.5928009,24.8302078 C54.5928009,25.7938841 54.9725034,26.9751647 55.7319085,28.3740497 L55.7319085,28.3740497 L57.7311586,31.6381145 L54.5928009,37.5134313 L48.9902512,37.5134313 L48.9902512,40.9173847 L53.8023997,40.9173847 C54.0968629,42.440615 54.7555306,43.6685251 55.7784027,44.6011151 C56.8012748,45.533705 58.072116,46 59.5909261,46 Z M59.6141732,28.3274202 C58.4053243,26.2446359 57.8008999,25.0788985 57.8008999,24.8302078 C57.8008999,24.2084812 58.0953631,23.7421862 58.6842895,23.4313229 L58.6842895,23.4313229 L60.5673041,26.7420172 L59.6141732,28.3274202 Z M66.3093363,37.5367461 L65.1237345,37.5367461 L64.8447694,37.5134313 L61.4971879,31.6381145 L62.4503187,30.0060821 L66.7742782,37.5134313 L66.3093363,37.5367461 Z M59.5909261,42.5727319 C58.9090114,42.5727319 58.3045869,42.3434702 57.7776528,41.8849468 C57.2507187,41.4264234 56.9872516,40.8629836 56.9872516,40.1946275 C56.9872516,39.4330123 57.8628921,37.668863 59.6141732,34.9021794 C60.1256093,35.7415104 60.6447944,36.5808414 61.1717285,37.4201723 C61.8381452,38.5859098 62.1713536,39.4718702 62.1713536,40.0780537 C62.1713536,40.7464099 61.911761,41.3292786 61.3925759,41.8266599 C60.8733908,42.3240412 60.2728409,42.5727319 59.5909261,42.5727319 Z M50.408324,40.9173847 L50.408324,37.5134313 L48.7345332,37.5134313 L48.7345332,30.6355803 C48.7345332,29.2988681 48.2850894,28.1836459 47.3862017,27.2899138 C46.4873141,26.3961818 45.3714536,25.9493158 44.0386202,25.9493158 C42.4888139,25.9493158 41.3032121,26.5088697 40.4818148,27.6279777 C39.7534058,28.6382835 39.3892013,29.9439094 39.3892013,31.5448555 L39.3892013,31.5448555 L26.4173228,31.5448555 L26.4173228,24.7136341 C26.4173228,23.5945261 26.9830021,23.0349721 28.1143607,23.0349721 C26.8900137,23.0349721 25.7896513,22.3977023 24.8132733,21.1231627 C24.0228721,20.1128569 23.4416948,18.9082615 23.0697413,17.5093766 C23.0387452,17.6648082 23.0232471,17.7891536 23.0232471,17.8824126 L23.0232471,17.8824126 L23.0232471,34.9721237 L42.7832771,34.9721237 L42.7832771,30.7055246 C42.7832771,29.8506504 43.1939758,29.4232134 44.0153731,29.4232134 C44.8832646,29.4232134 45.3172103,29.8273357 45.3172103,30.6355803 L45.3172103,30.6355803 L45.3172103,37.5134313 L23,37.5134313 L23,40.9173847 L50.408324,40.9173847 Z" id="مهد"></path>
                <path d="M8.43032787,48.8430098 C10.0532787,48.8430098 11.4508197,48.2817774 12.6229508,47.1593126 C13.795082,46.0368478 14.3811475,44.6473138 14.3811475,42.9907106 C14.3811475,41.9688806 14.1857923,41.1018734 13.795082,40.3896888 L13.795082,40.3896888 L10.5491803,34.5141663 L11.4508197,32.911751 L15.7561475,40.7612634 L22,40.7612634 C20.8879781,39.8632915 20.136612,39.151107 19.7459016,38.6247097 C19.1898907,37.8505961 18.829235,36.8674717 18.6639344,35.6753367 C18.6639344,36.6971667 18.4009563,37.2622697 17.875,37.3706456 L17.875,37.3706456 L13.3893443,29.4514631 L15.4631148,25.8750581 C16.1393443,24.5281003 16.477459,23.204366 16.477459,21.9038551 C16.477459,19.4266914 15.9665301,17.4759251 14.9446721,16.051556 C14.1181694,14.8903855 12.6154372,13.6982505 10.4364754,12.475151 C9.70013661,12.0571296 9.29439891,11.8248955 9.2192623,11.7784487 C8.91871585,11.5307323 8.76844262,11.2365691 8.76844262,10.8959591 C8.76844262,10.49342 9.0351776,9.62641276 9.56864754,8.2949373 C10.1021175,6.96346184 10.3688525,5.94163183 10.3688525,5.22944728 C10.3688525,4.67208546 10.1772541,4.16117046 9.79405738,3.69670228 C9.41086066,3.23223409 8.97131148,3 8.47540984,3 C8.03961749,3 7.65266393,3.17417557 7.31454918,3.52252671 C6.97643443,3.87087784 6.80737705,4.26954637 6.80737705,4.71853228 C6.80737705,5.18300046 6.9726776,5.57779842 7.30327869,5.90292615 C7.63387978,6.22805388 8.02459016,6.39061774 8.47540984,6.39061774 C8.91120219,6.39061774 9.30942623,6.22805388 9.67008197,5.90292615 C9.50478142,6.38287661 8.91120219,7.20343706 7.88934426,8.36460752 C7.01775956,9.33999071 6.58196721,10.2766682 6.58196721,11.17464 C6.58196721,12.026165 6.67964481,12.6996439 6.875,13.1950766 C4.32035519,14.124013 2.02868852,16.9572689 0,21.6948444 C1.51775956,19.7750426 2.74248634,18.4745317 3.67418033,17.7933117 C5.07172131,16.7714817 6.70969945,16.2605667 8.58811475,16.2605667 C10.090847,16.2605667 11.2780055,16.9417867 12.1495902,18.3042267 C12.8709016,19.4344326 13.2315574,20.7504258 13.2315574,22.2522062 C13.2315574,23.1192135 12.6755464,24.4429478 11.5635246,26.2234092 L11.5635246,26.2234092 L9.01639344,21.6948444 C7.01775956,22.9643908 5.86065574,23.7462455 5.54508197,24.0404087 C4.40300546,25.077721 3.83196721,26.3163028 3.83196721,27.7561542 C3.83196721,28.7160551 4.21516393,29.900449 4.98155738,31.3093358 L4.98155738,31.3093358 L6.875,34.5141663 L4.66598361,38.2299118 C3.53893443,40.2426072 2.97540984,41.5740827 2.97540984,42.2243381 C2.97540984,44.1596222 3.43374317,45.7233318 4.35040984,46.9154668 C5.34221311,48.2004954 6.70218579,48.8430098 8.43032787,48.8430098 Z M8.74590164,31.262889 C7.60382514,29.2656758 7.03278689,28.1122465 7.03278689,27.802601 C7.03278689,27.1368633 7.28825137,26.6569128 7.79918033,26.3627497 L7.79918033,26.3627497 L9.64754098,29.6372503 L8.74590164,31.262889 Z M8.67827869,45.452392 C7.98702186,45.452392 7.39719945,45.2085462 6.90881148,44.7208546 C6.4204235,44.233163 6.17622951,43.633225 6.17622951,42.9210404 C6.17622951,42.4565722 6.25887978,42.0772565 6.42418033,41.7830934 L6.42418033,41.7830934 L8.67827869,37.788667 L10.932377,41.7830934 C11.0976776,42.0772565 11.1803279,42.4565722 11.1803279,42.9210404 C11.1803279,43.6022604 10.9286202,44.1944573 10.4252049,44.6976312 C9.92178962,45.2008051 9.33948087,45.452392 8.67827869,45.452392 Z M10.4815574,53 C11.3080601,53 11.7213115,52.5819786 11.7213115,51.7459359 C11.7213115,50.8944109 11.3080601,50.4686484 10.4815574,50.4686484 C9.67008197,50.4686484 9.26434426,50.8944109 9.26434426,51.7459359 C9.26434426,52.5819786 9.67008197,53 10.4815574,53 Z M7.16803279,53 C7.99453552,53 8.40778689,52.5819786 8.40778689,51.7459359 C8.40778689,50.8944109 7.99453552,50.4686484 7.16803279,50.4686484 C6.35655738,50.4686484 5.95081967,50.8944109 5.95081967,51.7459359 C5.95081967,52.5819786 6.35655738,53 7.16803279,53 Z" id="ي"></path>
            </g>
        </g>
    </g>
</svg>